<svg width="48" height="48" viewBox="0 0 48 48" fill="none" xmlns="http://www.w3.org/2000/svg">
<rect width="48" height="48" rx="4" fill="#EDFFDD"/>
<path d="M29.563 13.0046L26.7857 13C23.6655 13 21.6492 15.1251 21.6492 18.4142V20.9106H18.8567C18.6154 20.9106 18.42 21.1115 18.42 21.3594V24.9763C18.42 25.2241 18.6157 25.4249 18.8567 25.4249H21.6492V34.5514C21.6492 34.7993 21.8446 35 22.0859 35H25.7292C25.9705 35 26.1659 34.799 26.1659 34.5514V25.4249H29.4308C29.6721 25.4249 29.8675 25.2241 29.8675 24.9763L29.8689 21.3594C29.8689 21.2404 29.8228 21.1264 29.741 21.0422C29.6592 20.9579 29.5478 20.9106 29.432 20.9106H26.1659V18.7944C26.1659 17.7773 26.4018 17.2609 27.6916 17.2609L29.5625 17.2603C29.8036 17.2603 29.999 17.0593 29.999 16.8117V13.4532C29.999 13.2058 29.8038 13.005 29.563 13.0046Z" fill="#066F14"/>
</svg>
