<svg width="48" height="48" viewBox="0 0 48 48" fill="none" xmlns="http://www.w3.org/2000/svg">
<rect width="48" height="48" rx="4" fill="#EDFFDD"/>
<path fill-rule="evenodd" clip-rule="evenodd" d="M14 24C14 19.8086 14 17.7129 15.0504 16.2672C15.3896 15.8003 15.8003 15.3896 16.2672 15.0504C17.7129 14 19.8086 14 24 14C28.1914 14 30.2871 14 31.7328 15.0504C32.1997 15.3896 32.6104 15.8003 32.9496 16.2672C34 17.7129 34 19.8086 34 24C34 28.1914 34 30.2871 32.9496 31.7328C32.6104 32.1997 32.1997 32.6104 31.7328 32.9496C30.2871 34 28.1914 34 24 34C19.8086 34 17.7129 34 16.2672 32.9496C15.8003 32.6104 15.3896 32.1997 15.0504 31.7328C14 30.2871 14 28.1914 14 24ZM24 18.7059C21.0763 18.7059 18.7059 21.0763 18.7059 24C18.7059 26.9237 21.0763 29.2941 24 29.2941C26.9237 29.2941 29.2941 26.9237 29.2941 24C29.2941 21.0763 26.9237 18.7059 24 18.7059ZM24 27.3088C22.1762 27.3088 20.6912 25.8238 20.6912 24C20.6912 22.1749 22.1762 20.6912 24 20.6912C25.8238 20.6912 27.3088 22.1749 27.3088 24C27.3088 25.8238 25.8238 27.3088 24 27.3088ZM30.3966 18.3088C30.3966 18.6984 30.0808 19.0143 29.6912 19.0143C29.3016 19.0143 28.9857 18.6984 28.9857 18.3088C28.9857 17.9192 29.3016 17.6034 29.6912 17.6034C30.0808 17.6034 30.3966 17.9192 30.3966 18.3088Z" fill="#066F14"/>
</svg>
