<svg width="48" height="48" viewBox="0 0 48 48" fill="none" xmlns="http://www.w3.org/2000/svg">
<rect width="48" height="48" rx="4" fill="#EDFFDD"/>
<path d="M34.5 17.7726C33.7271 18.1005 32.8978 18.3229 32.0264 18.4222C32.9161 17.9121 33.5972 17.1029 33.92 16.1416C33.0854 16.6141 32.1642 16.9571 31.1826 17.1431C30.3966 16.3402 29.2785 15.8401 28.0384 15.8401C25.6593 15.8401 23.7303 17.6872 23.7303 19.9639C23.7303 20.2868 23.7683 20.6022 23.8418 20.9038C20.262 20.7317 17.0877 19.0894 14.9631 16.594C14.5918 17.2021 14.3805 17.9108 14.3805 18.6672C14.3805 20.0984 15.1416 21.3612 16.2964 22.1C15.5904 22.0774 14.9264 21.8914 14.3451 21.5823V21.6338C14.3451 23.6317 15.8306 25.299 17.8002 25.6785C17.4394 25.7715 17.0588 25.823 16.6651 25.823C16.387 25.823 16.1179 25.7966 15.8542 25.7464C16.4027 27.3861 17.9931 28.5785 19.8776 28.6112C18.4039 29.7169 16.5457 30.3741 14.5275 30.3741C14.1798 30.3741 13.8372 30.354 13.5 30.3176C15.4067 31.4899 17.6704 32.1734 20.1033 32.1734C28.028 32.1734 32.3597 25.8884 32.3597 20.4377L32.3453 19.9037C33.1917 19.3256 33.9239 18.5994 34.5 17.7726Z" fill="#066F14"/>
</svg>
